<svg width="26" height="26" viewBox="0 0 26 26" fill="none" xmlns="http://www.w3.org/2000/svg">
<g clip-path="url(#clip0_3107_10480)">
<path d="M22.9608 7.16367V6.80799C22.9608 5.17299 21.6306 3.84277 19.9956 3.84277H2.96522C1.33016 3.84282 0 5.17299 0 6.80799V7.16367H22.9608Z" fill="#F3F4F6"/>
<path d="M13.5651 16.702C13.5651 15.1638 14.0598 13.7019 14.9731 12.4971H0V16.6333C0 18.2683 1.33016 19.5985 2.96522 19.5985H14.1911C13.7813 18.7009 13.5651 17.7181 13.5651 16.702ZM11.4804 15.8032H8.92125V14.2798H11.4804V15.8032ZM3.41545 14.2798H7.39781V15.8032H3.41545V14.2798Z" fill="#F3F4F6"/>
<path d="M16.5547 10.974C17.7165 10.1612 19.0967 9.72323 20.5443 9.72323C21.3822 9.72323 22.1973 9.87035 22.9608 10.1515V8.6875H0V10.974H16.5547Z" fill="#F3F4F6"/>
<path d="M26.0013 16.7018C26.0013 13.6887 23.5587 11.2461 20.5456 11.2461C17.5325 11.2461 15.0898 13.6887 15.0898 16.7018C15.0898 19.7149 17.5324 22.1575 20.5456 22.1575C23.5587 22.1575 26.0013 19.7149 26.0013 16.7018ZM21.281 19.6164V20.2364H20.5193V20.2364V20.2364H19.7576V19.6209C19.297 19.465 18.9202 19.1906 18.5523 18.9215L19.4516 17.6919C19.946 18.0534 20.1989 18.2272 20.5456 18.2272C20.7416 18.2272 20.9003 18.1339 20.9598 17.9838C21.0318 17.802 20.93 17.6345 20.6874 17.5357C20.6874 17.5357 19.5986 17.1726 19.0952 16.6593C18.6729 16.2288 18.5385 15.622 18.673 15.0447C18.8083 14.4635 19.2008 14.0091 19.7576 13.7822V13.1671H21.281V13.7567C21.6679 13.8641 21.9954 14.0229 22.1837 14.1251L21.4568 15.464C20.9749 15.2024 20.5316 15.1239 20.3591 15.1829C20.1916 15.2401 20.1662 15.3493 20.1566 15.3904C20.143 15.4486 20.1358 15.538 20.2289 15.6418C20.3185 15.7417 21.2618 16.1248 21.2618 16.1248C22.2796 16.5391 22.7585 17.5795 22.376 18.5449C22.1773 19.0467 21.7774 19.4267 21.281 19.6164Z" fill="#F3F4F6"/>
</g>
<defs>
<clipPath id="clip0_3107_10480">
<rect width="26" height="26" fill="white"/>
</clipPath>
</defs>
</svg>
