<svg width="25" height="25" viewBox="0 0 25 25" fill="none" xmlns="http://www.w3.org/2000/svg">
<g clip-path="url(#clip0_3107_12031)">
<path d="M11 18.2501C10.8694 18.2501 10.7412 18.216 10.6278 18.1512L4.0625 14.3989C4.00545 14.3659 3.94074 14.3486 3.87486 14.3486C3.80899 14.3487 3.74428 14.366 3.68726 14.399C3.63024 14.432 3.58291 14.4794 3.55003 14.5365C3.51716 14.5936 3.4999 14.6583 3.5 14.7242V18.2501C3.49989 18.384 3.53561 18.5154 3.60344 18.6308C3.67128 18.7462 3.76877 18.8414 3.88578 18.9064L10.6358 22.6564C10.7472 22.7183 10.8725 22.7507 11 22.7507C11.1275 22.7507 11.2528 22.7183 11.3642 22.6564L18.1142 18.9064C18.2312 18.8414 18.3287 18.7462 18.3966 18.6308C18.4644 18.5154 18.5001 18.384 18.5 18.2501V14.7242C18.5001 14.6583 18.4828 14.5936 18.45 14.5365C18.4171 14.4794 18.3698 14.432 18.3127 14.399C18.2557 14.366 18.191 14.3487 18.1251 14.3486C18.0593 14.3486 17.9945 14.3659 17.9375 14.3989L11.3722 18.1512C11.2588 18.216 11.1306 18.2501 11 18.2501Z" fill="#F3F4F6"/>
<path d="M22.2471 9.92965C22.2471 9.92965 22.2471 9.9259 22.2471 9.92449C22.235 9.80561 22.1946 9.69134 22.1294 9.59122C22.0642 9.49109 21.976 9.408 21.8721 9.34887L11.3721 3.34887C11.2588 3.28408 11.1305 3.25 10.9999 3.25C10.8694 3.25 10.7411 3.28408 10.6277 3.34887L0.127741 9.34887C0.0129847 9.41448 -0.082392 9.50925 -0.148727 9.62359C-0.215063 9.73793 -0.25 9.86777 -0.25 9.99996C-0.25 10.1321 -0.215063 10.262 -0.148727 10.3763C-0.082392 10.4907 0.0129847 10.5854 0.127741 10.6511L10.6277 16.6511C10.7411 16.7158 10.8694 16.7499 10.9999 16.7499C11.1305 16.7499 11.2588 16.7158 11.3721 16.6511L20.6102 11.3725C20.6245 11.3642 20.6407 11.3599 20.6572 11.3599C20.6737 11.3599 20.6899 11.3643 20.7042 11.3726C20.7184 11.3808 20.7302 11.3927 20.7384 11.407C20.7466 11.4213 20.7509 11.4375 20.7509 11.454V18.2289C20.7509 18.6325 21.0612 18.9789 21.4648 18.999C21.5662 19.0039 21.6675 18.9882 21.7627 18.9527C21.8578 18.9173 21.9448 18.8629 22.0183 18.7929C22.0918 18.7228 22.1503 18.6386 22.1903 18.5453C22.2302 18.4519 22.2509 18.3515 22.2509 18.25V9.99996C22.2508 9.97647 22.2496 9.95301 22.2471 9.92965Z" fill="#F3F4F6"/>
</g>
<defs>
<clipPath id="clip0_3107_12031">
<rect width="25" height="25" fill="white"/>
</clipPath>
</defs>
</svg>
