<svg width="40" height="40" viewBox="0 0 40 40" fill="none" xmlns="http://www.w3.org/2000/svg">
<path d="M10.8563 3.33325C8.68297 3.54825 7.21964 4.03159 6.1263 5.12659C4.16797 7.08825 4.16797 10.2466 4.16797 16.5649V23.2649C4.16797 29.5816 4.16797 32.7416 6.1263 34.7049C8.08464 36.6683 11.238 36.6666 17.543 36.6666H20.888C27.193 36.6666 30.3463 36.6666 32.3046 34.7049C34.083 32.9216 34.248 30.1766 34.263 24.9616" stroke="#F3F4F6" stroke-width="3" stroke-linecap="round" stroke-linejoin="round"/>
<path d="M17.5435 11.6667L19.2152 17.5C20.1485 19.35 21.3202 19.8334 24.2318 20C26.5468 19.9434 27.8902 19.67 29.0368 18.6734C29.8185 17.9934 30.1718 16.9684 30.3435 15.9484L30.9168 12.5M35.0968 9.1667V17.5M14.3352 8.2217C16.9802 6.0267 19.3368 4.84836 24.2252 3.5517C24.7767 3.4061 25.3568 3.40898 25.9068 3.56003C30.2335 4.75003 32.5702 5.8067 35.7002 8.1567C35.8335 8.2567 35.8735 8.44337 35.7802 8.5817C34.7585 10.085 32.4768 11.3034 26.8802 13.4734C25.7145 13.9219 24.4225 13.9148 23.2618 13.4534C17.3018 11.0867 14.5618 9.82003 14.2285 8.50503C14.2177 8.45255 14.2219 8.39807 14.2408 8.34792C14.2597 8.29777 14.2924 8.254 14.3352 8.2217Z" stroke="#F3F4F6" stroke-width="3" stroke-linecap="round" stroke-linejoin="round"/>
</svg>
