<svg width="25" height="25" viewBox="0 0 25 25" fill="none" xmlns="http://www.w3.org/2000/svg">
<path fill-rule="evenodd" clip-rule="evenodd" d="M7.98828 2.08203H17.0195C20.5508 2.08203 22.9154 4.5612 22.9154 8.2487V16.7602C22.9154 20.4372 20.5508 22.9154 17.0195 22.9154H7.98828C4.45703 22.9154 2.08203 20.4372 2.08203 16.7602V8.2487C2.08203 4.5612 4.45703 2.08203 7.98828 2.08203ZM12.4884 9.43726C11.9988 9.43726 11.5925 9.02997 11.5925 8.53101C11.5925 8.02059 11.9988 7.61434 12.5092 7.61434C13.0092 7.61434 13.4155 8.02059 13.4155 8.53101C13.4155 9.02997 13.0092 9.43726 12.4884 9.43726ZM13.4049 16.4372C13.4049 16.9372 12.9986 17.3435 12.4882 17.3435C11.9882 17.3435 11.5819 16.9372 11.5819 16.4372V11.8331C11.5819 11.332 11.9882 10.9164 12.4882 10.9164C12.9986 10.9164 13.4049 11.332 13.4049 11.8331V16.4372Z" fill="#F3F4F6"/>
</svg>
